<svg width="40" height="40" viewBox="0 0 40 40" fill="none" xmlns="http://www.w3.org/2000/svg">
<path fill-rule="evenodd" clip-rule="evenodd" d="M10 15.383C10 12.4101 12.4101 10 15.383 10H19.4963C19.8267 10 20.0944 10.2678 20.0944 10.5981C20.0944 10.9284 19.8267 11.1962 19.4963 11.1962H15.383C13.0707 11.1962 11.1962 13.0707 11.1962 15.383V24.617C11.1962 26.9293 13.0707 28.8038 15.383 28.8038H24.617C26.9293 28.8038 28.8038 26.9293 28.8038 24.617V20.3358C28.8038 20.0055 29.0716 19.7377 29.4019 19.7377C29.7322 19.7377 30 20.0055 30 20.3358V24.617C30 27.5899 27.5899 30 24.617 30H15.383C12.4101 30 10 27.5899 10 24.617V15.383ZM23.5942 11.5968C24.874 10.3868 26.8777 10.3926 28.1504 11.61C29.4906 12.8919 29.5143 15.0252 28.2029 16.3365L22.1602 22.3793C21.1507 23.3888 19.7815 23.9559 18.3538 23.9559H17.8384C16.8474 23.9559 16.0441 23.1526 16.0441 22.1616V21.0537C16.0441 19.5736 16.6534 18.1589 17.7289 17.1421L23.5942 11.5968ZM27.3235 12.4744C26.5113 11.6976 25.2327 11.6938 24.416 12.466L24.049 12.8129L27.0502 15.7975L27.3571 15.4907C28.1939 14.6538 28.1788 13.2925 27.3235 12.4744ZM26.2044 16.6434L23.1794 13.6351L18.5507 18.0113C17.7142 18.8022 17.2403 19.9025 17.2403 21.0537V22.1616C17.2403 22.4919 17.5081 22.7597 17.8384 22.7597H18.3538C19.4642 22.7597 20.5291 22.3186 21.3143 21.5334L26.2044 16.6434Z" fill="white" stroke="white" stroke-width="0.5" stroke-linecap="round" stroke-linejoin="round"/>
</svg>
